<svg id="Cloud" xmlns="http://www.w3.org/2000/svg" viewBox="0 0 192 192"><title>Block_Hub_Network</title><path d="M168,120A15.94,15.94,0,0,0,158,123.56L136,111.36V80.64L158,68.45A16,16,0,1,0,152,56a15.7,15.7,0,0,0,.13,2L130.69,69.87,102,58.32V38.83a16,16,0,1,0-12,0V58.32L61.31,69.87,39.87,58A15.7,15.7,0,0,0,40,56a16,16,0,1,0-6,12.45L56,80.64v30.72l-22,12.2A16,16,0,1,0,40,136a15.7,15.7,0,0,0-.13-1.95l21.55-12L90,133.58v19.59a16,16,0,1,0,12,0V133.58l28.58-11.5,21.55,12A15.7,15.7,0,0,0,152,136a16,16,0,1,0,16-16ZM96,92v26.77l-24-9.6V82.83l24-9.6,22.77,9.11Z"/></svg>